 <svg  version="1.0" xmlns="http://www.w3.org/2000/svg"  width="900.000000pt" height="800.000000pt" viewBox="0 0 900.000000 900.000000"  preserveAspectRatio="xMidYMid meet">  <g transform="translate(0.000000,900.000000) scale(0.100000,-0.100000)" fill="#ffffff" stroke="none"> <path d="M3800 6523 c-129 -23 -214 -81 -266 -185 -33 -66 -36 -80 -37 -158 -1 -71 3 -94 25 -140 46 -101 127 -173 228 -203 49 -15 154 -17 975 -20 l920 -3 67 -22 c275 -92 478 -300 566 -576 22 -71 25 -99 26 -231 1 -128 -3 -161 -22 -227 -32 -107 -56 -160 -117 -253 -103 -155 -246 -268 -412 -324 -135 -46 -191 -51 -529 -51 -353 0 -386 -4 -477 -62 -72 -46 -119 -106 -145 -184 -26 -81 -27 -110 -7 -189 24 -93 94 -184 172 -223 76 -39 152 -45 531 -39 308 5 371 8 457 26 379 78 682 262 920 559 153 191 231 357 302 642 26 107 28 129 28 315 0 182 -3 212 -28 330 -16 72 -34 144 -42 160 -7 17 -16 41 -20 55 -15 50 -115 247 -162 317 -208 314 -552 557 -913 647 -186 46 -196 46 -1130 45 -487 -1 -896 -4 -910 -6z"/> <path d="M4545 5314 c-126 -15 -273 -52 -336 -85 -21 -10 -42 -19 -47 -19 -19 0 -199 -104 -247 -143 -242 -195 -392 -431 -450 -712 -22 -101 -30 -421 -30 -1135 l0 -525 26 -56 c50 -107 140 -178 261 -207 84 -21 216 20 295 92 22 19 55 64 74 98 l34 63 5 755 c6 800 4 764 55 875 59 127 182 237 313 278 63 19 97 21 517 27 448 6 450 6 514 30 246 95 302 410 104 584 -98 87 -106 88 -568 92 -307 2 -428 0 -520 -12z"/> <path d="M2142 4107 c-66 -25 -154 -103 -180 -160 -38 -81 -46 -132 -32 -195 28 -127 82 -200 185 -249 l72 -34 469 3 469 3 55 28 c66 34 101 66 139 127 110 176 19 416 -183 484 -43 14 -106 16 -495 15 -424 -1 -449 -2 -499 -22z"/> </g> </svg> 