<?xml version="1.0" standalone="no"?>
<!DOCTYPE svg PUBLIC "-//W3C//DTD SVG 20010904//EN"
 "http://www.w3.org/TR/2001/REC-SVG-20010904/DTD/svg10.dtd">
<svg version="1.0" xmlns="http://www.w3.org/2000/svg"
 width="409.000000pt" height="409.000000pt" viewBox="0 0 409.000000 409.000000"
 preserveAspectRatio="xMidYMid meet">

<g transform="translate(0.000000,409.000000) scale(0.100000,-0.100000)"
fill="#000000" stroke="none">
<path d="M2240 3560 l-45 -41 0 -70 c0 -56 4 -73 18 -83 25 -19 21 -37 -24
-105 -30 -46 -47 -61 -64 -61 -13 0 -25 5 -27 11 -2 7 -32 12 -74 13 -78 1
-136 -19 -192 -66 -38 -32 -45 -34 -66 -13 -8 8 -17 15 -20 15 -3 0 -33 19
-67 42 l-61 42 7 44 c4 24 3 67 0 96 -6 43 -15 58 -55 99 -49 49 -65 54 -170
48 -118 -6 -186 -107 -166 -244 7 -47 69 -127 98 -127 9 0 18 -5 20 -11 9 -27
198 -5 198 23 0 22 87 -17 98 -44 2 -4 9 -8 15 -8 7 0 28 -14 47 -29 35 -29
35 -29 37 -123 2 -51 4 -108 5 -126 3 -28 -2 -36 -27 -50 -16 -9 -32 -19 -35
-22 -5 -5 -22 -18 -85 -60 -12 -8 -44 -28 -71 -45 -27 -16 -51 -32 -54 -35
-10 -10 -69 -50 -76 -50 -3 0 -17 -9 -31 -20 -32 -25 -54 -25 -81 0 -16 15
-35 20 -81 20 l-61 0 -40 -51 c-60 -76 -54 -142 20 -211 35 -33 135 -31 178 3
39 31 62 100 48 146 -8 28 -6 35 15 52 13 11 29 20 35 21 5 0 19 8 30 18 28
24 54 41 87 55 15 6 27 15 27 19 0 5 10 13 23 19 43 19 180 109 185 121 8 17
49 6 78 -20 59 -54 197 -92 230 -64 5 5 27 14 49 20 23 6 55 26 73 43 l33 32
42 -23 c23 -13 60 -35 82 -49 22 -14 61 -37 88 -51 26 -14 47 -28 47 -31 0 -4
14 -12 30 -19 17 -7 30 -16 30 -21 0 -5 7 -9 16 -9 29 0 43 -25 37 -67 -3 -25
-1 -43 6 -47 6 -4 11 -16 11 -26 0 -10 8 -25 18 -32 43 -33 50 -51 41 -103 -5
-27 -14 -79 -19 -115 -5 -36 -16 -105 -25 -155 -9 -49 -18 -104 -21 -121 -9
-64 -5 -63 -249 -52 -121 6 -267 13 -325 17 l-105 6 -13 40 c-7 22 -22 59 -33
82 l-21 43 38 35 c39 37 53 42 71 24 7 -7 36 -12 65 -12 41 -1 62 5 95 26 35
22 43 33 52 75 13 64 1 108 -41 145 -38 34 -65 41 -126 34 -39 -4 -52 -12 -79
-44 -42 -49 -50 -92 -29 -145 l16 -41 -38 -33 c-45 -40 -56 -41 -97 -9 -19 14
-59 29 -98 36 -56 10 -76 10 -134 -5 -37 -9 -69 -21 -71 -26 -2 -6 -10 -10
-18 -10 -8 0 -14 -3 -14 -7 0 -5 -18 -28 -40 -53 -22 -24 -40 -52 -40 -62 0
-10 -4 -18 -9 -18 -6 0 -11 -17 -13 -37 l-3 -38 -165 -12 c-91 -6 -197 -11
-235 -12 l-71 -1 -13 45 c-15 52 -63 109 -106 125 -37 14 -131 15 -165 2 -38
-15 -94 -74 -108 -113 -14 -42 -16 -125 -2 -134 6 -3 10 -14 10 -23 0 -25 90
-101 128 -108 60 -11 127 1 165 30 39 30 87 106 87 137 0 17 9 19 83 19 45 0
153 3 240 7 l157 6 0 -23 c0 -57 111 -210 152 -210 8 0 21 -7 29 -16 10 -12
30 -15 97 -13 l84 3 18 -34 c10 -19 28 -57 40 -85 12 -27 31 -70 42 -95 11
-25 24 -54 28 -65 5 -11 17 -40 28 -65 11 -25 26 -60 33 -77 8 -18 17 -33 21
-33 5 0 8 -10 8 -23 0 -13 5 -28 10 -33 13 -13 2 -44 -15 -44 -7 0 -26 -16
-41 -36 -26 -32 -40 -54 -66 -107 -21 -43 -6 -210 22 -237 3 -3 11 -16 18 -30
20 -37 91 -90 152 -111 89 -31 142 -25 245 28 28 15 61 47 112 108 15 17 27
23 35 18 12 -7 52 -18 162 -42 44 -10 66 -33 66 -67 0 -13 5 -26 10 -29 6 -3
10 -13 10 -21 0 -43 100 -88 159 -72 74 21 111 65 111 135 0 46 -29 104 -59
119 -13 7 -28 17 -34 23 -6 6 -29 11 -52 11 -44 0 -106 -35 -125 -70 -12 -22
-37 -25 -84 -11 -17 6 -62 19 -100 31 -38 12 -73 23 -77 25 -3 3 -2 26 3 52
11 58 -12 158 -49 213 -29 44 -29 50 6 84 25 24 34 27 63 21 18 -4 45 -14 60
-21 37 -19 67 -18 124 7 96 42 134 115 121 232 -5 41 -14 58 -44 89 -20 21
-42 38 -48 38 -21 0 -34 37 -25 71 5 19 13 75 18 124 6 50 15 102 21 118 10
27 11 27 103 27 104 0 310 -15 436 -32 68 -9 82 -14 82 -29 0 -28 46 -89 87
-117 39 -27 109 -39 165 -28 47 9 114 72 132 126 18 51 21 106 6 115 -5 3 -10
16 -10 29 0 25 -73 100 -108 111 -35 10 -124 8 -157 -5 -34 -13 -89 -70 -107
-112 l-13 -28 -100 6 c-55 3 -149 12 -210 20 -60 8 -146 14 -192 14 -45 0 -85
5 -88 10 -7 12 10 138 30 220 8 30 17 87 21 125 3 39 13 85 20 104 8 18 14 41
14 51 0 13 12 21 37 27 46 11 103 79 103 124 0 33 -40 118 -55 119 -5 0 -23 7
-40 16 -40 22 -111 21 -136 -2 -16 -14 -24 -16 -37 -7 -9 7 -53 33 -97 59 -44
26 -82 51 -85 54 -3 4 -20 13 -37 21 -18 8 -33 17 -33 21 0 5 -6 8 -14 8 -8 0
-16 3 -18 8 -1 4 -16 15 -33 24 l-30 17 -1 108 c0 99 -3 112 -26 148 -14 22
-36 50 -48 63 -19 20 -20 27 -10 52 6 16 20 36 31 46 10 9 19 21 19 26 0 18
38 46 51 37 18 -11 79 -11 79 0 0 5 10 11 23 15 80 20 115 135 62 205 -34 47
-78 71 -128 71 -36 0 -50 -6 -87 -40z m130 -47 c38 -17 40 -20 40 -64 0 -42
-3 -47 -35 -64 -43 -24 -81 -13 -107 31 -17 29 -17 33 -2 63 13 26 34 43 61
50 2 1 21 -7 43 -16z m-849 -74 c36 -34 49 -62 49 -107 0 -49 -33 -99 -82
-124 -49 -26 -88 -17 -139 32 -39 37 -40 39 -37 101 3 62 4 64 48 97 39 30 50
34 90 30 30 -3 54 -13 71 -29z m534 -291 c25 -7 45 -16 45 -20 0 -4 6 -8 13
-8 44 -2 87 -84 87 -170 0 -83 -35 -143 -105 -180 -34 -18 -157 -19 -163 -2
-2 7 -11 12 -20 12 -45 0 -112 128 -98 188 4 15 10 39 13 54 10 49 70 101 153
131 23 8 26 8 75 -5z m728 -591 c52 -48 26 -137 -40 -137 -24 0 -63 18 -75 35
-12 16 -9 68 5 86 33 42 76 49 110 16z m-1518 -62 c16 -15 25 -36 25 -55 0
-36 -38 -80 -70 -80 -36 0 -77 28 -84 56 -20 79 73 136 129 79z m808 -187 c45
-22 59 -71 31 -113 -39 -60 -144 -28 -144 44 0 21 9 36 33 55 37 30 43 31 80
14z m-355 -239 c2 -5 10 -9 18 -9 8 0 29 -13 47 -30 18 -16 35 -30 40 -30 4 0
7 -8 7 -18 0 -10 5 -23 11 -29 6 -6 11 -44 11 -84 0 -44 -5 -75 -11 -77 -6 -2
-11 -10 -11 -18 0 -8 -4 -14 -9 -14 -5 0 -13 -9 -16 -20 -4 -11 -30 -34 -58
-50 -71 -41 -161 -41 -226 -2 -80 49 -124 178 -87 252 9 18 16 38 16 43 0 14
72 77 88 77 6 0 12 4 12 9 0 21 161 21 168 0z m-977 -112 c42 -28 59 -60 59
-114 0 -35 -6 -50 -36 -83 -34 -38 -40 -40 -93 -40 -49 0 -60 4 -88 31 -18 16
-33 38 -33 48 0 9 -5 22 -11 28 -11 11 4 73 26 102 38 52 121 65 176 28z
m2795 -96 c54 -39 74 -95 50 -144 -9 -19 -16 -39 -16 -44 -1 -19 -73 -53 -113
-53 -67 0 -127 65 -127 137 0 36 30 95 52 101 10 2 18 8 18 12 0 10 25 17 66
19 20 1 45 -9 70 -28z m-1221 -65 c132 -8 246 -15 253 -16 11 0 12 -13 7 -62
-4 -35 -13 -79 -20 -98 -7 -19 -16 -59 -19 -89 -6 -64 -19 -81 -58 -81 -22 0
-44 -13 -85 -53 -52 -50 -55 -55 -60 -112 -5 -62 10 -145 27 -145 21 0 9 -28
-27 -63 -34 -35 -63 -48 -63 -29 0 5 -35 20 -78 35 -68 22 -85 24 -126 15 -26
-5 -49 -8 -50 -6 -5 7 -54 116 -71 158 -10 25 -26 63 -36 85 -59 130 -79 176
-79 185 0 5 -9 25 -20 45 -27 49 -25 63 15 101 19 18 35 37 35 42 0 6 6 12 13
15 6 2 18 25 25 50 8 25 18 47 23 49 5 2 42 0 82 -4 39 -4 180 -14 312 -22z
m303 -450 c35 -33 37 -37 36 -95 -1 -58 -3 -64 -39 -96 -32 -30 -44 -35 -84
-34 -54 1 -98 24 -122 65 -21 36 -23 67 -5 117 18 52 58 77 124 77 46 0 57 -4
90 -34z m-462 -317 c24 -6 44 -15 44 -20 0 -5 7 -9 15 -9 20 0 85 -59 85 -77
0 -8 7 -25 16 -38 24 -36 21 -124 -5 -179 -33 -67 -74 -102 -149 -125 l-66
-20 -60 21 c-71 24 -118 67 -146 134 -21 48 -27 139 -10 149 6 3 10 15 10 26
0 10 9 28 20 39 11 11 20 23 20 28 0 14 81 61 125 72 43 11 51 11 101 -1z
m673 -393 c35 -37 26 -93 -18 -117 -31 -16 -36 -16 -66 -2 -49 24 -57 80 -17
126 22 25 74 22 101 -7z"/>
</g>
</svg>
